HIERARCHY
ROOT Hips
{
	OFFSET	0.000000	0.000000	0.000000
	CHANNELS 6 Xposition Yposition Zposition Xrotation Yrotation Zrotation
	JOINT LowerBack
	{
		OFFSET	0.000000	9.040726	-5.556680
		CHANNELS 3 Xrotation Yrotation Zrotation
		JOINT Spine
		{
			OFFSET	0.000000	11.761670	0.000001
			CHANNELS 3 Xrotation Yrotation Zrotation
			JOINT Spine1
			{
				OFFSET	0.000000	16.573260	0.000001
				CHANNELS 3 Xrotation Yrotation Zrotation
				JOINT Neck
				{
					OFFSET	0.000000	27.800300	0.648493
					CHANNELS 3 Xrotation Yrotation Zrotation
					JOINT Head
					{
						OFFSET	0.000000	9.623182	0.000001
						CHANNELS 3 Xrotation Yrotation Zrotation
						End Site
						{
							OFFSET	0.000000	21.384850	0.000001
						}
					}
				}
				JOINT RightShoulder
				{
					OFFSET	-3.421576	25.661800	0.000001
					CHANNELS 3 Xrotation Yrotation Zrotation
					JOINT RightArm
					{
						OFFSET	-16.894030	-4.276955	1.069242
						CHANNELS 3 Xrotation Yrotation Zrotation
						JOINT RightForeArm
						{
							OFFSET	-33.827700	-2.457476	-1.479667
							CHANNELS 3 Xrotation Yrotation Zrotation
							JOINT RightHand
							{
								OFFSET	-28.569920	0.856769	1.055109
								CHANNELS 3 Xrotation Yrotation Zrotation
								End Site
								{
									OFFSET	-17.120570	-0.556302	0.631827
								}
							}
						}
					}
				}
				JOINT LeftShoulder
				{
					OFFSET	3.421576	25.661790	0.000001
					CHANNELS 3 Xrotation Yrotation Zrotation
					JOINT LeftArm
					{
						OFFSET	16.894030	-4.276955	1.069242
						CHANNELS 3 Xrotation Yrotation Zrotation
						JOINT LeftForeArm
						{
							OFFSET	33.827700	-2.457511	-1.479666
							CHANNELS 3 Xrotation Yrotation Zrotation
							JOINT LeftHand
							{
								OFFSET	28.569910	0.856733	1.055110
								CHANNELS 3 Xrotation Yrotation Zrotation
								End Site
								{
									OFFSET	17.120570	-0.556326	0.631826
								}
							}
						}
					}
				}
			}
		}
	}
	JOINT RightUpLeg
	{
		OFFSET	-9.623178	0.485432	0.000000
		CHANNELS 3 Xrotation Yrotation Zrotation
		JOINT RightLeg
		{
			OFFSET	-0.534619	-46.725870	-0.000003
			CHANNELS 3 Xrotation Yrotation Zrotation
			JOINT RightFoot
			{
				OFFSET	-0.000003	-48.452720	-0.438391
				CHANNELS 3 Xrotation Yrotation Zrotation
				JOINT RightToeBase
				{
					OFFSET	-0.000001	-4.260931	13.211600
					CHANNELS 3 Xrotation Yrotation Zrotation
					End Site
					{
						OFFSET	0.000000	0.000001	7.336852
					}
				}
			}
		}
	}
	JOINT LeftUpLeg
	{
		OFFSET	9.623178	0.485432	0.000000
		CHANNELS 3 Xrotation Yrotation Zrotation
		JOINT LeftLeg
		{
			OFFSET	0.534619	-46.725860	-0.000003
			CHANNELS 3 Xrotation Yrotation Zrotation
			JOINT LeftFoot
			{
				OFFSET	0.000003	-48.452720	-0.438397
				CHANNELS 3 Xrotation Yrotation Zrotation
				JOINT LeftToeBase
				{
					OFFSET	0.000001	-4.260932	13.211600
					CHANNELS 3 Xrotation Yrotation Zrotation
					End Site
					{
						OFFSET	0.000000	0.000000	7.336852
					}
				}
			}
		}
	}
}
MOTION
Frames:	7
Frame Time: 0.0200000000
	0.000000	100.897600	0.000000	0.000000	0.000000	0.000000	0.000000	0.000000	0.000000	0.000000	0.000000	0.000000	0.000000	0.000000	0.000000	0.000000	0.000000	0.000000	0.000000	0.000000	0.000000	0.000000	0.000000	0.000000	0.000000	0.000000	0.000000	0.000000	0.000000	0.000000	0.000000	0.000000	0.000000	0.000000	0.000000	0.000000	0.000000	0.000000	0.000000	0.000000	0.000000	0.000000	0.000000	0.000000	0.000000	0.000000	0.000000	0.000000	0.000000	0.000000	0.000000	0.000000	0.000000	0.000000	0.000000	0.000000	0.000000	0.000000	0.000000	0.000000	0.000000	0.000000	0.000000	0.000000	0.000000	0.000000	0.000000	0.000000	0.000000
	-307.741700	100.682000	69.822380	-120.199800	84.830310	122.277500	0.000008	0.000000	0.000002	3.362849	0.805198	-0.243677	11.227840	2.615183	-0.986038	0.000000	-0.000001	0.000000	0.000000	-0.000001	0.000000	-0.016153	0.005565	-0.220864	3.781900	37.540710	79.174190	0.008210	0.273967	-0.000215	0.000000	0.000000	0.000000	0.030299	0.010267	-0.413785	-20.514910	-39.947620	-80.897190	0.202754	-6.726944	0.016538	0.000001	0.000001	-0.000003	-22.022080	-7.936463	-7.265851	30.908350	0.001499	-0.001130	-0.685824	-0.440523	-0.153963	-0.000200	-0.000001	0.000000	14.125860	0.559582	-4.045531	-0.332978	0.002983	-0.000334	-3.623219	-1.801004	-0.701048	-3.597192	0.000001	0.000000
	-304.788300	100.222500	69.781000	-119.774500	84.444760	122.155600	0.000008	0.000000	0.000002	3.516160	0.727065	-0.227657	11.737220	2.357649	-0.921120	0.000000	-0.000005	0.000001	0.000000	-0.000005	0.000001	-0.003844	0.001322	-0.052530	4.619401	34.435250	79.182330	0.021007	0.700885	-0.000611	-0.000001	0.000000	0.000000	0.034103	0.011531	-0.465654	-22.034800	-39.836260	-80.642310	0.320543	-10.554700	0.036862	0.000000	0.000002	-0.000001	-20.319110	-6.304704	-6.740065	21.372310	0.001552	-0.000859	-0.949795	-0.615705	-0.217087	-0.001007	0.000006	0.000000	16.658610	0.455372	-4.280879	-0.805436	0.007246	-0.000770	-5.935393	-2.627181	-1.090085	-1.633104	0.000000	0.000000
	-302.336400	99.690470	69.650090	-119.351600	84.387150	121.991900	0.000008	-0.000005	0.000002	3.596965	0.687294	-0.201150	12.004070	2.231244	-0.830995	0.000000	0.000000	0.000000	0.000000	0.000000	0.000000	0.004578	-0.001552	0.062607	5.204628	32.404770	79.181660	0.012080	0.402830	-0.000318	0.000000	0.000001	0.000000	0.034138	0.011556	-0.466168	-23.486080	-40.833690	-80.427760	0.425736	-13.890910	0.061434	-0.000004	0.000001	0.000000	-19.398950	-5.113110	-6.621786	13.335810	0.001303	-0.000494	-0.949104	-0.456572	-0.173786	-0.003806	-0.000004	0.000000	18.539560	0.146795	-4.493744	-1.356804	0.012201	-0.001245	-8.068932	-3.370642	-1.507481	-0.347593	-0.000003	0.000000
	-300.161000	99.265790	69.525460	-119.511200	84.636290	122.330300	0.000011	0.000000	0.000002	3.614614	0.680485	-0.162818	12.059960	2.218246	-0.709238	0.000000	0.000000	0.000000	0.000000	0.000000	0.000000	0.010630	-0.003626	0.145366	5.458472	31.677390	79.070940	-0.011507	-0.384224	0.000233	0.000000	0.000000	0.000000	0.030488	0.010329	-0.416398	-24.431810	-41.790410	-79.772930	0.536917	-17.310510	0.093704	0.000000	0.000000	0.000000	-19.334820	-4.612863	-6.861991	6.567312	0.001240	-0.000294	-0.853668	-0.038719	-0.032233	-0.005707	-0.000001	-0.000001	19.791040	-0.010806	-4.693933	-1.653863	0.014886	-0.001479	-9.229631	-3.725914	-1.719155	-0.001398	0.000002	0.000000
	-298.215300	98.841870	69.488560	-119.415100	85.066710	122.231400	0.000006	0.000000	0.000002	3.575483	0.702481	-0.114316	11.927320	2.304056	-0.555225	-0.000001	0.000000	0.000001	0.000000	0.000000	0.000000	0.015414	-0.005243	0.210597	5.397655	31.577340	78.779610	-0.031833	-1.062531	0.000434	0.000001	-0.000001	-0.000001	0.027400	0.009303	-0.374291	-24.548040	-42.172630	-78.618130	0.656278	-20.840680	0.135159	0.000000	-0.000001	-0.000001	-20.313240	-4.418657	-6.925655	2.214059	0.001259	-0.000189	-1.060080	0.668089	0.233843	-0.003807	0.000000	-0.000001	20.492310	-0.033464	-4.749988	-1.366076	0.012295	-0.001244	-10.350040	-3.623280	-1.682858	-0.000005	0.000000	0.000000
	-296.079700	98.181140	69.770260	-116.566800	85.569200	119.146900	0.000012	0.000000	0.000002	3.489768	0.747321	-0.056428	11.640240	2.468149	-0.368368	0.000000	0.000000	0.000000	0.000000	0.000000	0.000000	0.019824	-0.006736	0.270842	5.560646	31.221830	78.467910	-0.029822	-0.995480	0.000431	-0.000002	0.000001	0.000001	0.022895	0.007787	-0.312814	-23.730790	-41.794730	-77.275560	0.790414	-24.613690	0.189593	0.000002	0.000004	0.000002	-21.855500	-4.409354	-6.033008	0.396520	0.000679	-0.000080	-1.586259	1.634345	0.604094	-0.001003	0.000008	0.000002	21.114750	0.019575	-4.489054	-0.499077	0.004486	-0.000475	-12.752000	-3.280724	-1.561543	-0.000006	0.000000	0.000000
